# xmcd
#
# Track frame offsets:
#	150
#	17907
#	36807
#	61395
#	83685
#	94650
#	110865
#	130382
#	151892
#	170717
#	185030
#	204272
#
# Disc length: 2947 seconds
# Revision: 9
# Processed by: cddbd v1.5.2PL0 Copyright (c) Steve Scherf et al.
# Submitted via: dBpowerAMP V12.0
#
DISCID=a20b810c
DTITLE=Keb' Mo' - The Door
DYEAR=2000
DGENRE=Blues
TTITLE0=The Door
TTITLE1=Loola Loo
TTITLE2=It Hurts Me Too
TTITLE3=Come On Back
TTITLE4=Stand Up (And Be Strong)
TTITLE5=Anyway
TTITLE6=Don't You Know
TTITLE7=It's All Coming Back
TTITLE8=Gimme What You Got
TTITLE9=Mommy Can I Come Home
TTITLE10=Change
TTITLE11=The Beginning
EXTD=
EXTT0=
EXTT1=
EXTT2=
EXTT3=
EXTT4=
EXTT5=
EXTT6=
EXTT7=
EXTT8=
EXTT9=
EXTT10=
EXTT11=
PLAYORDER=
